<svg xmlns="http://www.w3.org/2000/svg" width="60" height="57" viewBox="1.004 1.992 58.992 56.013" fill="#4b811b"><path paint-order="stroke fill markers" fill-rule="evenodd" d="M25.208 16.822a1.008 1.008 0 0 0 1.301-.564.99.99 0 0 0-.569-1.286c-1.496-.579-2.238-2.254-1.652-3.735.584-1.48 2.277-2.214 3.774-1.635a1.01 1.01 0 0 0 1.302-.564.99.99 0 0 0-.57-1.286c-2.532-.977-5.388.263-6.377 2.763-.99 2.5.264 5.33 2.791 6.307zm29.273 3.132a.99.99 0 0 0-.517 1.308 2.83 2.83 0 0 1 .045 2.205 2.876 2.876 0 0 1-1.544 1.591 2.925 2.925 0 0 1-2.23.045 2.881 2.881 0 0 1-1.61-1.528 1.009 1.009 0 0 0-1.322-.512.99.99 0 0 0-.517 1.308 4.87 4.87 0 0 0 2.717 2.582 4.975 4.975 0 0 0 1.793.336c.67 0 1.34-.138 1.974-.412a4.863 4.863 0 0 0 2.61-2.688 4.789 4.789 0 0 0-.076-3.726 1.01 1.01 0 0 0-1.323-.51zm-14.026-2.758a.988.988 0 0 0-.38 1.353c.383.67.48 1.449.271 2.19a2.872 2.872 0 0 1-1.374 1.738 2.926 2.926 0 0 1-2.214.268 2.896 2.896 0 0 1-1.757-1.36 1.01 1.01 0 0 0-1.368-.376.989.989 0 0 0-.38 1.354c.905 1.583 2.576 2.473 4.294 2.473.82 0 1.65-.203 2.413-.628a4.848 4.848 0 0 0 2.321-2.936 4.79 4.79 0 0 0-.457-3.7 1.01 1.01 0 0 0-1.37-.376zm-8.57 1.792c.69.33 1.418.486 2.137.486 1.829 0 3.589-1.012 4.439-2.747a.99.99 0 0 0-.467-1.327 1.009 1.009 0 0 0-1.342.461c-.7 1.432-2.446 2.03-3.892 1.34a2.872 2.872 0 0 1-1.354-3.85.99.99 0 0 0-.467-1.328 1.01 1.01 0 0 0-1.341.462c-1.181 2.416-.156 5.334 2.287 6.503zm-7.467 5.652a4.952 4.952 0 0 0 3.767.073 4.858 4.858 0 0 0 2.714-2.584.988.988 0 0 0-.518-1.308c-.512-.22-1.1.012-1.322.512a2.884 2.884 0 0 1-1.607 1.53 2.916 2.916 0 0 1-2.23-.042 2.874 2.874 0 0 1-1.504-3.796.989.989 0 0 0-.518-1.308 1.008 1.008 0 0 0-1.321.513c-1.086 2.458.054 5.335 2.54 6.41zm12.663-10.452a4.919 4.919 0 0 0 3.603-1.091 4.839 4.839 0 0 0 .664-6.854 1.011 1.011 0 0 0-1.414-.134.986.986 0 0 0-.136 1.398 2.863 2.863 0 0 1-.393 4.058c-.6.49-1.348.723-2.133.646a2.902 2.902 0 0 1-1.97-1.035 1.011 1.011 0 0 0-1.413-.134.986.986 0 0 0-.136 1.398 4.905 4.905 0 0 0 3.328 1.748zm-20.582 8.97a.99.99 0 0 0-.553-1.294 1.01 1.01 0 0 0-1.309.547c-.603 1.472-2.303 2.186-3.795 1.588-1.489-.598-2.209-2.282-1.605-3.755a.991.991 0 0 0-.553-1.295 1.009 1.009 0 0 0-1.309.548c-1.02 2.488.196 5.333 2.71 6.342.605.243 1.23.357 1.845.357 1.946 0 3.793-1.147 4.57-3.038zM58.52 20.32a5.108 5.108 0 0 0-1.317-5.247 5.36 5.36 0 0 0-3.8-1.514 4.569 4.569 0 0 0-1.095-1.656c-1.288-1.251-3.132-1.61-4.76-1.121.002-.088.021-.173.021-.26 0-3.873-3.235-7.023-7.21-7.023-.755 0-1.493.113-2.206.338a6.14 6.14 0 0 0-4.388-1.845c-1.85 0-3.579.826-4.716 2.207a6.91 6.91 0 0 0-3.04-.7c-3.762 0-6.823 2.983-6.823 6.648v.039a6.765 6.765 0 0 0-2.59 2.134c-1.891-.696-4.051-.3-5.547 1.092-1.875-.583-3.962-.116-5.384 1.266a5.131 5.131 0 0 0-1.566 3.697 4.729 4.729 0 0 0-1.697 1.06 4.553 4.553 0 0 0 0 6.57c.52.504 1.138.877 1.82 1.1a5.416 5.416 0 0 0 1.649 3.853 5.659 5.659 0 0 0 3.886 1.595c.077.957.5 1.875 1.212 2.567a4.22 4.22 0 0 0 2.947 1.184c.404 0 .803-.075 1.192-.188 4.13.114 9.75 9.098 10.489 19.582.091 1.294 1.193 2.307 2.506 2.307h5.021a2.51 2.51 0 0 0 2.504-2.214l.076-.697c1.376-12.608 4.242-19.08 8.518-19.274.839.449 1.762.696 2.694.696a5.677 5.677 0 0 0 3.965-1.593c.378-.366.695-.777.95-1.229a4.833 4.833 0 0 0 3.334-1.348 4.566 4.566 0 0 0 1.388-3.578 5.314 5.314 0 0 0 1.875-1.178 5.098 5.098 0 0 0 1.567-3.683 5.092 5.092 0 0 0-1.475-3.587zm-37.96-8.545a.993.993 0 0 0 .675-1.064 4.572 4.572 0 0 1-.04-.566c0-2.57 2.16-4.66 4.815-4.66.995 0 1.952.294 2.77.852.232.16.523.213.798.15a.998.998 0 0 0 .648-.481c.71-1.252 2.068-2.03 3.54-2.03 1.29 0 2.512.607 3.272 1.624.278.374.78.506 1.209.321a5.306 5.306 0 0 1 2.113-.437c2.867 0 5.202 2.26 5.202 5.037 0 .68-.15 1.343-.43 1.974 0 .003-.003.004-.004.007l-.076.18-.004.01v.001l-.002.005c-.018.038-.018.077-.031.116-.028.083-.061.166-.067.251-.001.021.007.04.007.061 0 .103.006.207.038.305.01.031.034.056.047.087.036.083.071.166.129.237a.98.98 0 0 0 .295.245c.547.299.873.83.873 1.422 0 .595-.346 1.145-.901 1.437a.99.99 0 0 0-.375 1.415c.327.503.501 1.08.501 1.671 0 1.267-.779 2.406-1.986 2.903a.99.99 0 0 0-.551 1.272c.14.36.21.732.21 1.102 0 1.739-1.464 3.153-3.263 3.153-.185 0-.368-.02-.55-.051-.039-.006-.076-.015-.113-.022a3.364 3.364 0 0 1-.532-.152h-.001a3.25 3.25 0 0 1-1.62-1.346 1.01 1.01 0 0 0-.846-.485.985.985 0 0 0-.86.455 5.155 5.155 0 0 1-2.19 1.87c-.13.06-.26.116-.393.164-.065.024-.133.043-.2.064-.125.04-.25.08-.38.111-.086.02-.176.033-.265.05-.113.02-.224.045-.338.059a5.553 5.553 0 0 1-.595.036c-.15 0-.3-.01-.45-.022-.048-.004-.097-.004-.146-.008a5.594 5.594 0 0 1-.49-.08c-.03-.006-.064-.01-.095-.017a5.318 5.318 0 0 1-.524-.147l-.045-.014a5.113 5.113 0 0 1-.553-.225 5.175 5.175 0 0 1-1.977-1.617 1.007 1.007 0 0 0-1.423-.206 4.13 4.13 0 0 1-.832.474c-.007.003-.014.002-.021.005a4.3 4.3 0 0 1-.795.257l-.027.007a3.84 3.84 0 0 1-.805.087c-2.227 0-4.038-1.752-4.038-3.906 0-.825.267-1.617.772-2.29a.983.983 0 0 0-.243-1.416c-1.303-.873-2.08-2.306-2.08-3.834 0-.226.02-.449.054-.668.008-.057.02-.112.03-.168.033-.167.073-.332.123-.494.018-.057.035-.113.055-.17a4.69 4.69 0 0 1 .216-.51c.017-.033.029-.067.047-.1a4.764 4.764 0 0 1 2.718-2.291zm14.33 18.25c.513-.315.99-.686 1.41-1.124a5.3 5.3 0 0 0 1.452.956c.029.036.057.07.096.11.166.16.344.306.534.436-1.242 1.432-2.353 3.113-3.27 4.742.06-1.91-.054-3.65-.221-5.12zM28.375 40.48a30.029 30.029 0 0 0-5.451-8.343c.32-.142.617-.334.875-.583.555-.54.863-1.265.882-2.016.23-.123.46-.286.69-.453.142-.062.286-.121.424-.194.497.516 1.07.952 1.693 1.299.801 3.093.943 7.122.887 10.29zm-15.999-6.776a2.022 2.022 0 0 1-.555-1.998.989.989 0 0 0-.245-.943 1.011 1.011 0 0 0-.942-.283c-1.227.266-2.479-.084-3.357-.938a3.424 3.424 0 0 1-.997-3.042.983.983 0 0 0-.184-.761 1.009 1.009 0 0 0-.684-.393 2.749 2.749 0 0 1-1.603-.758 2.585 2.585 0 0 1 .002-3.736c.411-.4.936-.658 1.519-.746.269-.04.509-.188.666-.407a.98.98 0 0 0 .167-.757 3.15 3.15 0 0 1 .91-2.846c1.004-.976 2.538-1.223 3.819-.616.417.198.925.086 1.218-.275a3.3 3.3 0 0 1 .267-.298 3.374 3.374 0 0 1 3.278-.812c-.01.03-.013.06-.022.089a6.456 6.456 0 0 0-.181.719c-.018.087-.044.173-.058.261a6.51 6.51 0 0 0-.084 1.012c0 1.87.81 3.636 2.201 4.887a5.713 5.713 0 0 0-.617 3.246c.007.068.02.135.03.203.018.126.034.252.06.375.016.078.04.153.06.23.027.11.052.22.086.327.026.082.058.159.087.238.036.1.07.2.112.296.035.082.076.158.114.238.044.09.086.184.136.272.043.078.092.152.138.228.052.086.103.171.158.254.051.074.106.145.16.216.06.079.117.158.18.235.059.07.122.136.184.203.065.072.13.144.199.213.065.065.135.125.204.188.071.064.142.13.217.191.071.06.146.114.22.17.078.057.154.115.235.17.077.053.157.1.237.149.083.05.165.1.25.148.083.045.167.085.252.127.088.043.176.087.267.125.086.037.174.07.263.103.093.034.187.07.282.1.09.029.183.054.275.079.098.025.194.051.292.073.095.021.19.037.287.052a5.323 5.323 0 0 0 .597.072c.064.004.127.014.19.017a.93.93 0 0 1-.272.533 1.041 1.041 0 0 1-1.02.239 1.017 1.017 0 0 0-.792.095.994.994 0 0 0-.472.636 2.032 2.032 0 0 1-.573 1.012 2.22 2.22 0 0 1-2.361.463 1.008 1.008 0 0 0-1.282.508 2.072 2.072 0 0 1-1.21 1.091c-.004.001-.006.005-.01.006a2.223 2.223 0 0 1-2.298-.48zm21.33 21.178l-.075.686a.51.51 0 0 1-.508.451h-5.02a.5.5 0 0 1-.503-.458c-.67-9.518-5.319-18.585-10.236-20.884.077.012.154.014.232.021.07.007.14.016.21.019.096.004.191 0 .287-.001.068-.002.136 0 .204-.005.095-.007.19-.022.284-.035.067-.01.134-.015.202-.028.093-.018.184-.043.277-.066.066-.018.132-.03.198-.051.092-.029.181-.066.272-.1.061-.025.124-.044.185-.07.098-.045.191-.096.287-.147.049-.027.1-.049.148-.077.118-.068.23-.147.34-.227.023-.017.048-.03.07-.047a4.245 4.245 0 0 0 .66-.626c1.964 2.075 5.307 6.349 6.914 12.701a1.007 1.007 0 0 0 1.973-.143c.038-.38.838-8.606-.37-14.798.07.012.144.016.215.027.16.024.322.047.485.061.11.009.22.012.329.017.096.004.19.015.287.015.056 0 .11-.007.165-.008.114-.003.227-.01.34-.017a6.834 6.834 0 0 0 .767-.091c.163-.029.324-.063.484-.103.052-.013.106-.019.159-.033.275 2.886.282 6.747-.81 10.592a.99.99 0 0 0 .657 1.213 1.006 1.006 0 0 0 1.251-.602c.024-.065 2.215-5.905 5.39-9.853.01.015.026.028.037.045.111.168.238.327.385.472.005.004.007.009.01.013.134.129.28.243.432.345l.014.011c.078.051.162.085.243.128.087.046.17.1.26.136.046.02.095.027.141.044.132.047.262.094.4.122.185.04.374.061.565.065.108.203.23.4.364.586-6.604 2.394-8.083 15.957-8.6 20.7zm23.315-28.71c-.484.472-1.1.781-1.78.896-.282.048-.53.212-.682.454a.98.98 0 0 0-.11.807c.273.924.01 1.92-.69 2.6a2.837 2.837 0 0 1-2.386.746 1.01 1.01 0 0 0-1.09.62c-.182.459-.453.866-.81 1.21-1.224 1.19-3.115 1.346-4.515.468l-.003-.002a3.433 3.433 0 0 1-1.444-1.777 1.002 1.002 0 0 0-.182-.303c-.021-.025-.047-.044-.07-.067a1.007 1.007 0 0 0-.191-.147 1.002 1.002 0 0 0-.32-.115c-.04-.008-.078-.016-.12-.019-.021-.001-.042-.01-.063-.01a1.01 1.01 0 0 0-.263.035h-.005c-.043.011-.086.011-.128.018-.27.04-.536-.022-.751-.173-.041-.03-.085-.055-.123-.09a.92.92 0 0 1-.17-.23c-.011-.02-.017-.045-.027-.067a.923.923 0 0 1-.043-.654.932.932 0 0 0 .03-.127c.312-.066.612-.162.9-.278.083-.034.157-.081.237-.118.21-.097.416-.2.61-.322.1-.063.189-.135.283-.204.162-.118.318-.24.465-.374a5.02 5.02 0 0 0 .26-.263 5.035 5.035 0 0 0 .87-1.253c.053-.109.11-.214.154-.326.08-.198.14-.402.195-.611.027-.101.063-.197.083-.302.063-.316.102-.64.102-.974 0-.32-.031-.637-.094-.951 1.494-.935 2.42-2.552 2.42-4.325 0-.657-.129-1.303-.378-1.907a3.605 3.605 0 0 0 1.076-1.88c.052-.24.079-.486.079-.737a3.5 3.5 0 0 0-.076-.704c-.015-.075-.043-.143-.063-.216a3.71 3.71 0 0 0-.147-.451c-.036-.083-.08-.16-.122-.239a3.5 3.5 0 0 0-.215-.373c-.054-.08-.115-.153-.176-.229-.053-.066-.096-.139-.154-.201 1.072-.72 2.558-.613 3.508.311.41.397.672.901.763 1.459.042.264.19.5.41.654.22.154.496.214.76.167a3.399 3.399 0 0 1 2.962.891 3.137 3.137 0 0 1 .631 3.666.984.984 0 0 0 .288 1.228 3.14 3.14 0 0 1 1.272 2.523 3.144 3.144 0 0 1-.967 2.267z"/></svg>