<svg xmlns="http://www.w3.org/2000/svg" width="60" height="54" viewBox="2.142 2.12 58.56 52.882" fill="#ffc243"><path paint-order="stroke fill markers" fill-rule="evenodd" d="M38.752 20.22a1 1 0 0 1 1.002.997 1 1 0 0 1-1.002.996 1 1 0 0 1-1.003-.996 1 1 0 0 1 1.003-.997zm5.232-2.64a1 1 0 0 1 1.003.998 1 1 0 0 1-1.003.996 1 1 0 0 1-1.002-.996 1 1 0 0 1 1.002-.997zM42.67 20.09a1 1 0 0 1 1.003.996 1 1 0 0 1-1.003.997 1 1 0 0 1-1.003-.997 1 1 0 0 1 1.003-.996zm-26.23-4.62a1 1 0 0 1 1.004.996 1 1 0 0 1-1.003.998 1 1 0 0 1-1.003-.998 1 1 0 0 1 1.003-.996zm5.85-1.32a1 1 0 0 1 1.002.997 1 1 0 0 1-1.002.996 1 1 0 0 1-1.003-.996 1 1 0 0 1 1.003-.996zm-3.233-.997a1 1 0 0 1 1.003.998 1 1 0 0 1-1.003.996 1 1 0 0 1-1.003-.996 1 1 0 0 1 1.003-.998zM14.183 31.48a1 1 0 0 1 1.003.996 1 1 0 0 1-1.003.997 1 1 0 0 1-1.002-.997 1 1 0 0 1 1.002-.996zm3.26-2.317a1 1 0 0 1 1.003.997 1 1 0 0 1-1.003.997 1 1 0 0 1-1.003-.997 1 1 0 0 1 1.003-.997zm1.613 1.994a1 1 0 0 1 1.003.997 1 1 0 0 1-1.003.996 1 1 0 0 1-1.003-.996 1 1 0 0 1 1.003-.997zm9.346-19.947a.706.706 0 0 1 .531.087c.08.049.22.16.26.357.29 1.395 1.706 2.286 3.162 1.994a.71.71 0 0 1 .532.087.56.56 0 0 1 .26.357 2.525 2.525 0 0 0 1.166 1.647c.431.266.924.403 1.427.403.188 0 .379-.02.568-.058a.996.996 0 1 0-.408-1.953.723.723 0 0 1-.531-.087.556.556 0 0 1-.259-.356 2.528 2.528 0 0 0-1.167-1.648 2.726 2.726 0 0 0-1.995-.346c-.37.079-.726-.123-.792-.444a2.53 2.53 0 0 0-1.167-1.648 2.736 2.736 0 0 0-1.996-.345.996.996 0 0 0-.778 1.178c.113.539.64.885 1.187.775zm3.967 14.108a1.001 1.001 0 0 0-.982 1.018c.004.116-.064.191-.112.192-1.17.026-2.099 1.024-2.073 2.228.003.116-.064.19-.112.192-.58.013-1.114.26-1.508.694a2.206 2.206 0 0 0-.565 1.535 1 1 0 0 0 1.002.974h.023a1 1 0 0 0 .98-1.019c-.001-.073.038-.189.112-.19 1.17-.026 2.1-1.025 2.074-2.228-.003-.116.064-.19.111-.191 1.17-.027 2.1-1.026 2.074-2.23-.012-.55-.443-.945-1.024-.975zm-7.184-3.638c-.153.344-.523.515-.824.384a2.557 2.557 0 0 0-2.026-.01 2.714 2.714 0 0 0-1.44 1.416.993.993 0 0 0 .514 1.312 1.004 1.004 0 0 0 1.322-.511.729.729 0 0 1 .379-.381.574.574 0 0 1 .443-.003c1.314.577 2.87-.055 3.468-1.404a.73.73 0 0 1 .38-.381.572.572 0 0 1 .442-.003 2.557 2.557 0 0 0 2.027.011 2.716 2.716 0 0 0 1.44-1.417.993.993 0 0 0-.514-1.312 1.003 1.003 0 0 0-1.322.51.726.726 0 0 1-.38.382.576.576 0 0 1-.442.003 2.558 2.558 0 0 0-2.028-.011 2.707 2.707 0 0 0-1.44 1.415zm34.633-3.432c-.007-.019-.022-.031-.03-.05a18.796 18.796 0 0 0-1.062-3.1c-.015-.048-.043-.09-.064-.135-2.296-5.01-6.588-8.193-11.768-10.13-.032-.016-.055-.042-.09-.054-.025-.008-.049-.004-.073-.01-2.21-.813-4.579-1.403-7.015-1.817-.006-.003-.009-.008-.015-.01a.983.983 0 0 0-.395-.053c-5.005-.81-10.27-.893-15.062-.645-.013 0-.023-.007-.036-.007-.021 0-.04.011-.061.012-4.298.226-8.209.712-11.177 1.176a5.634 5.634 0 0 0-4.757 5.02v.002c-.005.052-.02.099-.024.15L6.683 27.729c-1.826 1.157-5.68 4.293-4.216 9.432.516 1.812 1.36 2.877 2.508 3.163.21.053.552.226.502.543-.388 2.44-1.045 6.942-1.095 9.681-.024 1.319.413 2.425 1.262 3.196 1.203 1.095 2.896 1.258 3.793 1.258.315 0 .532-.02.596-.027.354-.022 3.483-.29 4.516-2.438.63-1.308.298-2.903-.974-4.736l16.443-6.625c.003.003.007.003.01.005.195.102.405.183.621.248.034.012.066.028.1.038.251.07.514.115.79.134.229.014.453.014.674.004.049-.002.098-.01.148-.012a5.54 5.54 0 0 0 .55-.065l.136-.025a5.103 5.103 0 0 0 .655-.17c.733-.248 1.368-.65 1.843-1.203a4.082 4.082 0 0 0 .477-.71c.132-.24.242-.5.332-.776.003-.01.007-.015.01-.024l18.833-7.59c.125-.042 3.105-1.07 4.632-4.184 1.169-2.383 1.165-5.275-.011-8.598zm-2.513 2.038c-.35-.76-.73-1.507-1.139-2.243l1.188-1.009a17.2 17.2 0 0 1 .7 2.486 3.703 3.703 0 0 1-.377 2.496 3.86 3.86 0 0 0-.372-1.73zm-.788-5.163l-1.402 1.192A21.253 21.253 0 0 0 52.51 13.1l1.221-1.761c1.1 1.1 2.041 2.354 2.787 3.785zM46.38 8.866l.671-1.84c1.899.789 3.644 1.768 5.171 2.972l-1.204 1.738c-1.312-1.076-2.846-2.041-4.638-2.87zM39.45 6.69l.587-1.675c1.774.327 3.5.755 5.138 1.306l-.645 1.77c-1.513-.563-3.204-1.031-5.08-1.4zm-7.218-.835V4.168c1.94.083 3.887.249 5.796.519l-.582 1.662a53.244 53.244 0 0 0-5.214-.494zM29 4.098c.407 0 .816.003 1.226.01v1.68a81.27 81.27 0 0 0-5.014.078V4.188c1.24-.054 2.504-.09 3.788-.09zM17.189 6.526v-1.67a106.84 106.84 0 0 1 6.017-.56v1.676c-1.893.122-3.902.308-6.017.554zm-3.906-1.13c.593-.094 1.234-.187 1.9-.28v1.65c-1.488.195-3.048.428-4.648.684a3.65 3.65 0 0 1 2.748-2.055zm-.542 46.277c-.448.938-2.25 1.27-2.883 1.316-.48.055-2.04.031-2.861-.716-.423-.386-.624-.937-.609-1.69.047-2.617.69-7.015 1.07-9.404.203-1.277-.636-2.45-1.993-2.788-.38-.095-.778-.758-1.067-1.773-1.174-4.125 2.227-6.575 3.743-7.437l.46-.262 1.527-19.385c5.302-.871 9.96-1.405 14.05-1.646.011 0 .02.006.031.006.018 0 .033-.01.051-.01 5.414-.315 9.84-.123 13.49.45.019.008.03.023.05.03.11.038.221.056.33.056.033 0 .063-.01.095-.015 2.448.415 4.528 1.009 6.323 1.736.076.056.152.114.246.148.067.024.135.026.203.035 2.21.948 3.959 2.108 5.38 3.402.07.11.163.208.278.287.023.016.048.02.072.035 2.224 2.136 3.62 4.603 4.753 7.066.886 1.922-1.67 3.358-1.961 3.514L34.51 32.482l-.123.486a3.561 3.561 0 0 0-.013 1.648c.268 1.179.327 2.169.19 2.947l-.023.113c-.178.844-.602 1.338-1.118 1.619-.506.263-1.076.318-1.469.32-.094-.002-.188 0-.28-.008a1.88 1.88 0 0 1-.483-.096l-.042-.015a1.467 1.467 0 0 1-.398-.221l-.07-.056c-.058-.052-.115-.103-.166-.166-.583-.712-.702-2.085-.566-3.059l.241-1.726-16.314 6.742c-1.868.721-2.968 1.7-3.362 2.996-.418 1.376.027 2.966 1.364 4.857.602.85 1.237 2.026.863 2.81zm-.306-7.089c.201-.66.931-1.237 2.192-1.723l13.292-5.493c.052.704.21 1.522.596 2.262l-15.922 6.415c-.217-.572-.279-1.064-.158-1.46zm45.605-18.64c-1.146 2.363-3.465 3.187-3.54 3.215l-17.87 7.2a11.812 11.812 0 0 0-.297-2.18 1.625 1.625 0 0 1-.04-.273l20.333-8.4a5.601 5.601 0 0 0 1.966-1.392 6.441 6.441 0 0 1-.552 1.83zM16.23 36.26c4.24 0 7.688-2.73 7.688-6.084 0-2.04-1.005-2.948-1.85-3.352-.938-.448-1.993-.448-2.83-.448-1.578 0-9.695 2.016-9.695 5.793 0 4.09 3.1 4.09 6.686 4.09zm3.016-7.89h.012c.634 0 1.418 0 1.941.251.214.103.713.341.713 1.556 0 2.218-2.602 4.09-5.683 4.09-4.68 0-4.68-.443-4.68-2.097 0-1.774 6.15-3.8 7.697-3.8zm-.691-8.282c4.24 0 7.689-2.73 7.689-6.084 0-2.04-1.005-2.949-1.85-3.352-.934-.446-2.017-.449-2.82-.449h-.01c-1.578 0-9.695 2.017-9.695 5.794 0 4.09 3.099 4.09 6.686 4.09zm3.016-7.892h.013c.633 0 1.418.003 1.941.253.214.102.713.34.713 1.556 0 2.217-2.602 4.09-5.683 4.09-4.68 0-4.68-.443-4.68-2.097 0-1.774 6.15-3.802 7.696-3.802zm12.667 8.745c0 4.09 3.098 4.09 6.686 4.09 4.24 0 7.689-2.729 7.689-6.084 0-2.04-1.006-2.949-1.85-3.352-.935-.447-2.018-.449-2.82-.449h-.01c-1.58 0-9.695 2.017-9.695 5.795zm9.7-3.802h.012c.634 0 1.42.001 1.944.251.214.103.713.343.713 1.557 0 2.217-2.602 4.09-5.683 4.09-4.68 0-4.68-.444-4.68-2.096 0-1.775 6.149-3.802 7.694-3.802z"/></svg>