<svg xmlns="http://www.w3.org/2000/svg" width="53" height="55" viewBox="1.998 1.001 52.004 53.997" fill="#4fb1c9"><path paint-order="stroke fill markers" fill-rule="evenodd" d="M22.96 26.272a1 1 0 0 0 .998-1.002v-3.664c0-.15-.012-.297-.022-.443l.308.308a.994.994 0 0 0 1.411 0l.323-.324c-.01.152-.022.304-.022.46v3.664a1 1 0 0 0 .998 1.002h3.651c3.49 0 6.33-2.85 6.33-6.352v-3.666a1 1 0 0 0-.998-1h-3.65c-.827 0-1.615.163-2.34.454a6.363 6.363 0 0 0-1.71-5.812l-2.582-2.59a.994.994 0 0 0-1.411 0l-2.584 2.59a6.361 6.361 0 0 0-1.71 5.804 6.255 6.255 0 0 0-2.322-.45h-3.652a1 1 0 0 0-.998 1.003v3.664c0 3.503 2.84 6.353 6.33 6.353h3.652zm11.978-9.016v2.664c0 2.398-1.944 4.348-4.334 4.348h-2.653v-2.662c0-2.399 1.944-4.35 4.334-4.35h2.653zm-11.866-5.944l1.876-1.883 1.877 1.883a4.366 4.366 0 0 1 0 6.15l-1.877 1.884-1.876-1.883a4.366 4.366 0 0 1 0-6.15zm-8.097 8.608v-2.664h2.653c2.39 0 4.334 1.951 4.334 4.35v2.662h-2.653c-2.39 0-4.334-1.951-4.334-4.348zM27.95 34.056a3.004 3.004 0 0 0-2.995 3.005h1.997a1 1 0 0 1 .998-1.001 1 1 0 0 1 .998 1.001h1.997a3.004 3.004 0 0 0-2.995-3.005zm7.985 1.002a3.003 3.003 0 0 0-2.994 3.005h1.996c0-.552.448-1.002.998-1.002s.999.45.999 1.002h1.996a3.003 3.003 0 0 0-2.995-3.005zm7.502-3.808l3.445-12.962c.022-.084.034-.17.034-.258a2.002 2.002 0 0 0-1.997-2.003h-1.996c-.365 0-.704.103-.998.275v-14.3a1 1 0 0 0-.999-1H9.99l-.015.002-.015-.003H2.996a1 1 0 0 0-.998 1.002V48.08c0 .4.238.762.604.92l6.963 3.006c.127.054.26.08.395.08l.018-.001.012.002h15.286a18.568 18.568 0 0 0 9.974 2.91c10.339 0 18.752-8.44 18.752-18.816v-.104c0-2.99-6.163-4.284-10.564-4.827zm-.514-13.22h1.961l-3.674 13.828v.002l-.001.003-.595 2.293a1.003 1.003 0 0 0 .966 1.254 1 1 0 0 0 .965-.75l.377-1.45c6.813.806 9.082 2.39 9.082 2.868 0 .986-5.7 3.298-16.755 3.298s-16.756-2.312-16.756-3.298c0-.987 5.7-3.3 16.756-3.3.59 0 1.157.024 1.732.039l-.187.745a1.002 1.002 0 0 0 .97 1.246 1 1 0 0 0 .966-.758l.49-1.948 3.67-13.814c.022-.084.033-.17.033-.258zM8.96 49.564L3.994 47.42V3.004h4.967v46.56zm13.664.52H10.988V3.004h28.941v18.651l-2.433 9.158a71.474 71.474 0 0 0-2.246-.038c-6.486 0-18.752 1.108-18.752 5.303v.104c0 .661.036 1.314.103 1.958.02.19.06.377.086.568.06.448.12.897.212 1.335.052.249.128.49.189.736.092.368.18.738.293 1.098.091.286.205.562.309.843.112.305.22.613.347.91.13.303.282.597.43.893.128.26.252.524.392.778.167.3.352.59.534.882.148.236.294.473.452.701.193.28.4.548.609.817.177.23.355.458.543.679.206.242.423.476.642.71.222.235.447.464.68.688.107.098.199.209.306.306zm12.626 2.91a16.612 16.612 0 0 1-9.236-2.797c-.126-.085-.248-.175-.372-.262-.285-.201-.566-.41-.838-.629-.1-.079-.2-.156-.298-.239-.355-.298-.698-.61-1.027-.937l-.18-.185a16.408 16.408 0 0 1-.933-1.03l-.054-.064a16.76 16.76 0 0 1-1.004-1.364 16.876 16.876 0 0 1-1.435-2.647l-.1-.232a16.592 16.592 0 0 1-.505-1.384c-.02-.06-.034-.12-.052-.18-.13-.427-.24-.864-.336-1.306-.019-.088-.04-.175-.058-.264-.046-.23-.07-.465-.107-.698 3.833 1.998 11.752 2.602 16.534 2.602 4.782 0 12.7-.604 16.534-2.602-1.25 8.04-8.176 14.219-16.533 14.219z"/></svg>