<svg xmlns="http://www.w3.org/2000/svg" width="58" height="50" viewBox="2 1.999 56.999 49"  fill="#8eaa41"><path paint-order="stroke fill markers" fill-rule="evenodd" d="M56.15 32.287l.001-4.443c.209-.014.415-.047.618-.1a2.98 2.98 0 0 0 2.013-1.872 3.74 3.74 0 0 0 .212-1.46c-.153-2.043-1.891-3.61-3.957-3.567h-.069C52.11 9.757 42.038 2 30.5 2 18.96 2 8.89 9.757 6.03 20.845h-.069c-2.065-.043-3.803 1.524-3.956 3.568-.027.495.045.99.212 1.457a2.98 2.98 0 0 0 2.013 1.875c.203.052.41.086.62.1v4.442a3.756 3.756 0 0 0-2.85 3.635 3.757 3.757 0 0 0 2.85 3.635v5.788c.004 3.122 2.554 5.651 5.7 5.654h39.897c3.147-.003 5.697-2.533 5.701-5.654v-5.788A3.757 3.757 0 0 0 59 35.922a3.757 3.757 0 0 0-2.85-3.635zM30.5 3.885c10.485.022 19.68 6.948 22.518 16.96H7.982C10.82 10.833 20.015 3.907 30.5 3.885zM4.76 25.935a1.084 1.084 0 0 1-.752-.694 1.843 1.843 0 0 1-.105-.729 2.007 2.007 0 0 1 2.058-1.782h49.076a2.007 2.007 0 0 1 2.058 1.782c.014.248-.021.497-.105.731-.118.341-.4.6-.752.692a1.565 1.565 0 0 1-1.011-.073c-.027-.01-.055-.018-.08-.03a1.633 1.633 0 0 1-.273-.165c-.013-.009-.027-.015-.04-.024-.008-.007-.017-.01-.025-.017a4.844 4.844 0 0 0-.687-.436 4.813 4.813 0 0 0-.6-.272h-.003a4.91 4.91 0 0 0-2.641-.208 4.653 4.653 0 0 0-3.159 2.272 2.772 2.772 0 0 1-2.359 1.396h-.006a3.098 3.098 0 0 1-.48-.05 3.01 3.01 0 0 1-2.17-1.386 5.072 5.072 0 0 0-.372-.515 5.05 5.05 0 0 0-.386-.416c-.011-.011-.022-.025-.034-.036a4.884 4.884 0 0 0-3.321-1.35l-.045-.003h-.01c-.04 0-.08-.006-.122-.005a4.66 4.66 0 0 0-3.995 2.365c-.493.878-2.38 1.402-3.92 1.402a7.405 7.405 0 0 1-.767-.045l-.095-.011a6.186 6.186 0 0 1-2.43-.752 1.79 1.79 0 0 1-.628-.594 4.66 4.66 0 0 0-4.118-2.366c-.114 0-.224.014-.335.021-.075.006-.152.006-.226.014-.147.018-.29.046-.435.076-.06.013-.123.02-.183.036-.142.034-.28.081-.417.129-.06.02-.122.037-.181.06-.126.049-.246.11-.366.168-.067.033-.137.06-.202.096-.105.059-.205.127-.306.193-.074.048-.151.091-.223.143-.087.064-.168.138-.251.208-.078.065-.158.125-.232.194-.075.072-.143.153-.214.23-.073.078-.15.151-.22.235-.09.11-.17.232-.252.352-.04.058-.086.111-.124.172l-.003.003c-.124.193-.269.371-.431.533a2.392 2.392 0 0 1-.109.111 2.995 2.995 0 0 1-.665.46c-.16.083-.328.151-.501.203l-.025.007c-.05.014-.1.026-.157.04-.195.044-.394.07-.595.075h-.02a2.128 2.128 0 0 1-.237-.01c-.028-.001-.054-.01-.082-.012-.008-.001-.015-.006-.023-.008a2.754 2.754 0 0 1-2.004-1.363 4.65 4.65 0 0 0-3.16-2.271 4.888 4.888 0 0 0-1.102-.09 4.872 4.872 0 0 0-3.017 1.023c-.395.31-.915.418-1.403.291zm36.86 6.494a.954.954 0 0 0-.671-.276h-13.3v-2.326c.065.02.13.033.196.052.184.053.367.107.55.147.015.004.029.005.043.009.677.148 1.368.227 2.06.233l.063-.002.1.002c1.577 0 4.528-.498 5.58-2.367a2.753 2.753 0 0 1 2.296-1.39c.163.006.325.025.485.057.073.012.15.012.222.03.49.122.942.365 1.313.705.007.006.016.01.023.017.197.184.37.393.513.621a4.874 4.874 0 0 0 4.29 2.325c.016-.001.032-.004.048-.004A4.7 4.7 0 0 0 49.54 27.9a2.752 2.752 0 0 1 2.422-1.392h.001c.163.007.324.027.484.06.076.016.148.04.222.062.116.033.23.073.34.12a2.964 2.964 0 0 1 .652.375c.183.143.381.267.59.372l-.003 4.655h-7.6c-.252 0-.494.099-.672.276a.937.937 0 0 0-.278.666v6.596c0 1.04-.85 1.884-1.9 1.884-1.049 0-1.9-.843-1.9-1.884v-6.596c0-.25-.1-.49-.278-.666zM40 34.038v3.769H27.65v-3.77H40zm-19-1.885a.946.946 0 0 0-.95.942c0 1.04-.85 1.885-1.9 1.885-1.049 0-1.9-.844-1.9-1.885v-2.853c.295-.032.586-.093.87-.18l.01-.004.107-.033.008-.003c.15-.049.297-.105.442-.168l.016-.006c.057-.024.114-.05.164-.074l.046-.024c.106-.053.209-.111.31-.172l.084-.049.143-.087c.015-.01.033-.026.048-.037a4.73 4.73 0 0 0 .26-.196c.03-.024.053-.038.086-.065.051-.04.1-.08.149-.123l.042-.04c.036-.033.07-.068.106-.102a8.5 8.5 0 0 0 .222-.232c.039-.04.079-.08.117-.126l.011-.016c.151-.178.29-.367.415-.564a3.061 3.061 0 0 1 2.632-1.44c.989.011 1.898.544 2.383 1.4.119.204.26.394.423.566.073.08.156.152.237.226.058.054.106.112.17.163v13.662c0 1.042-.851 1.886-1.9 1.886-1.05 0-1.9-.844-1.9-1.886v-3.77-5.653a.947.947 0 0 0-.95-.942zm-6.65-2.087v2.087h-7.6v-4.587c.269-.115.52-.263.75-.441a2.962 2.962 0 0 1 1.701-.616c.184 0 .366.016.546.049.795.149 1.482.641 1.874 1.343a4.601 4.601 0 0 0 2.73 2.165zm-8.549 7.74a1.895 1.895 0 0 1-1.9-1.884 1.895 1.895 0 0 1 1.897-1.884h8.673c.037.125.08.25.131.371.023.06.038.123.064.182.09.206.199.404.324.592.029.041.064.077.093.118.103.142.215.277.336.403.056.058.117.108.176.162.108.1.222.193.34.279.071.05.144.097.218.142.122.076.25.145.38.205.078.037.155.074.236.105.147.056.297.102.45.14.073.018.144.042.22.056a3.757 3.757 0 0 0 2.612-.435v1.449H5.8zm48.448 7.539c-.002 2.08-1.703 3.768-3.8 3.77H10.551c-2.098-.002-3.799-1.69-3.801-3.77v-5.654l13.3.001v2.827c0 2.082 1.7 3.77 3.8 3.77 2.098 0 3.8-1.688 3.8-3.77v-2.828h12.348c0 2.082 1.702 3.77 3.8 3.77 2.099 0 3.8-1.688 3.8-3.77h6.65v5.654zm.95-7.538h-7.6v-3.77h7.6c1.05 0 1.9.844 1.9 1.885s-.85 1.885-1.9 1.885zM25.079 6.988l-1.9 1.885a.936.936 0 0 0-.251.912.947.947 0 0 0 .674.67c.33.086.68-.01.92-.25l1.9-1.885a.937.937 0 0 0-.005-1.328.956.956 0 0 0-1.338-.004zm23.47 40.242c.252 0 .494-.099.672-.276l1.9-1.884a.937.937 0 0 0-.002-1.331.955.955 0 0 0-1.342-.001l-1.9 1.884a.938.938 0 0 0 0 1.332c.179.177.42.276.672.276zm-34.87-4.435l-1.9 1.885a.937.937 0 0 0-.25.912.946.946 0 0 0 .673.67c.33.086.68-.01.92-.25l1.9-1.885a.936.936 0 0 0-.004-1.327.955.955 0 0 0-1.339-.005zm16.15-28.268l-1.9 1.884a.937.937 0 0 0-.252.912.946.946 0 0 0 .675.67c.33.086.68-.009.92-.25l1.9-1.884a.936.936 0 0 0-.005-1.328.955.955 0 0 0-1.339-.004zm5.143-5.654a.955.955 0 0 0-1.34.004.936.936 0 0 0-.004 1.328l1.9 1.885a.955.955 0 0 0 1.339-.005.937.937 0 0 0 .004-1.328l-1.9-1.884zm-17.1 3.768a.956.956 0 0 0-1.338.005.936.936 0 0 0-.005 1.328l1.9 1.885a.955.955 0 0 0 1.339-.005.936.936 0 0 0 .004-1.327l-1.9-1.886zm16.15 30.154a.955.955 0 0 0-1.34.005.936.936 0 0 0-.004 1.327l1.9 1.885a.956.956 0 0 0 1.339-.005.936.936 0 0 0 .004-1.327l-1.9-1.885zm8.549-29.21a.955.955 0 0 0-1.339.004.937.937 0 0 0-.004 1.328l1.9 1.884a.956.956 0 0 0 1.338-.005.936.936 0 0 0 .005-1.327l-1.9-1.885z"/></svg>