<svg xmlns="http://www.w3.org/2000/svg" width="54" height="53" viewBox="2.895 2.682 51.494 51.318" fill="#ff6262">
<path paint-order="stroke fill markers" fill-rule="evenodd" d="M52.166 16.536C50.333 11.993 46.915 6.085 41.03 3.728 36.713 2 31.711 2.414 26.163 4.958c-6.936 3.182-9.205 8.885-6.386 16.06.875 2.225.543 4.655-.889 6.5-1.433 1.849-3.703 2.76-6.065 2.454-3.768-.497-6.659.353-8.365 2.46C3.15 34.046 1.995 37.13 3.9 42.648l.036.09c.136.299 3.44 7.347 11.921 10.168 1.832.61 3.73.78 5.564.942l.29.026c.613.055 1.67.126 3.042.126 3.424 0 8.815-.44 14.169-2.67 7.8-3.247 12.749-9.03 14.708-17.186 1.377-5.731.87-11.821-1.465-17.608zM51.7 33.674c-1.8 7.502-6.355 12.82-13.536 15.81-7.08 2.945-14.244 2.58-16.274 2.399l-.29-.026c-1.802-.16-3.503-.312-5.116-.849-7.33-2.438-10.459-8.53-10.723-9.07-1.234-3.602-1.15-6.527.239-8.243 1.248-1.542 3.518-2.141 6.563-1.74 3.077.408 6.022-.793 7.893-3.206 1.869-2.41 2.305-5.575 1.17-8.466-2.44-6.211-.637-10.754 5.362-13.505 5.037-2.31 9.515-2.71 13.308-1.192 5.233 2.095 8.341 7.52 10.03 11.701 2.178 5.398 2.653 11.063 1.374 16.387zM36.137 21.216c2.74 0 4.968-2.242 4.968-4.999 0-2.756-2.229-4.998-4.968-4.998s-4.967 2.242-4.967 4.998c0 2.757 2.228 4.999 4.967 4.999zm0-7.998c1.643 0 2.98 1.346 2.98 3 0 1.653-1.337 2.998-2.98 2.998s-2.98-1.345-2.98-2.999c0-1.653 1.337-2.999 2.98-2.999zM50.37 26.672a25.882 25.882 0 0 0-1.874-8.551C44.182 7.435 37.098 4.183 27.481 8.589c-1.925.884-7.783 3.57-4.615 11.634 1.154 2.937.82 6.094-.915 8.658-1.964 2.906-5.363 4.427-8.878 3.96-2.618-.352-4.582.17-5.488 1.456-.96 1.36-.952 3.716.026 6.632l.058.137c.495.974 3.29 5.936 9.625 8.045 1.44.478 3.012.618 4.675.766l.281.025c.843.076 1.747.114 2.688.114 18.768 0 23.616-11.749 24.829-16.8.499-2.078.688-4.212.61-6.361.006-.063-.001-.122-.008-.183zM28.305 10.408c2.517-1.154 4.835-1.74 6.89-1.74 4.87 0 8.726 3.435 11.46 10.205a24.26 24.26 0 0 1 1.586 6.15c-4.45-1.263-12.331 2.665-13.647 3.346-5.942 1.902-8.694-.824-9.449-1.789.611-2.296.488-4.75-.432-7.092-2.179-5.549.593-7.704 3.592-9.08zm-4.71 19.598c.3-.442.555-.902.785-1.37 1.162 1.071 3.23 2.384 6.411 2.384 1.306 0 2.799-.222 4.492-.772a.944.944 0 0 0 .153-.065c3.913-2.05 10.695-4.541 12.972-2.924a21.48 21.48 0 0 1-.571 5.487l-.032.125c-2.164-.613-7.412-1.227-16.072 2.952-2.962 1.43-5.519 1.708-7.598.831-2.011-.847-3.137-2.608-3.635-3.597a11.173 11.173 0 0 0 3.095-3.05zM22.428 47.91l-.282-.025c-1.547-.137-3.008-.267-4.229-.673-5.53-1.842-8.049-6.237-8.447-6.995-.852-2.579-.697-4.15-.264-4.763.432-.613 1.826-.869 3.608-.631a11.26 11.26 0 0 0 5.705-.73c.06.325.122.693.18 1.09.506 3.477 2.435 6.608 5.292 8.592 2.044 1.42 3.426 2.699 3.489 4.155a39.01 39.01 0 0 1-2.542.087 29.055 29.055 0 0 1-2.51-.107zm7.039-.159c-.16-2.709-2.819-4.56-4.348-5.622a10.65 10.65 0 0 1-3.842-4.906 8.341 8.341 0 0 0 2.065 1.265c2.632 1.12 5.743.83 9.251-.863 8.136-3.926 12.892-3.314 14.63-2.837-1.65 4.575-6.066 11.525-17.756 12.963z"/></svg>