<svg xmlns="http://www.w3.org/2000/svg" width="54" height="58" viewBox="1.074 1.343 52.925 56.653" fill="#f2374d"><path paint-order="stroke fill markers" fill-rule="evenodd" d="M12.373 12.597c1.085 0 2.17-.414 2.997-1.244a1.01 1.01 0 0 0 0-1.424.997.997 0 0 0-1.417 0 2.232 2.232 0 0 1-3.16 0 .996.996 0 0 0-1.416 0 1.01 1.01 0 0 0 0 1.424 4.213 4.213 0 0 0 2.996 1.244zm4.903 30.78a.999.999 0 0 0-1.332-.485c-.5.235-.717.835-.483 1.338l2.768 5.943a1 1 0 0 0 1.33.484c.501-.235.717-.835.483-1.338l-2.766-5.942zm25.347-.485a.998.998 0 0 0-1.331.485l-2.768 5.942a1.008 1.008 0 0 0 .906 1.433 1 1 0 0 0 .908-.58l2.767-5.942a1.008 1.008 0 0 0-.482-1.338zm-8.572 2.025a1.005 1.005 0 0 0-1.145.84l-.922 5.942a1.007 1.007 0 0 0 .991 1.163c.485 0 .911-.356.989-.852l.922-5.942a1.008 1.008 0 0 0-.835-1.15zm-9.534 0c-.546.086-.92.601-.835 1.15l.922 5.943a1.004 1.004 0 0 0 1.144.84c.546-.086.92-.601.835-1.151l-.922-5.942a1.006 1.006 0 0 0-1.144-.84zm4.769-23.298c4.33 0 8.455-.558 11.928-1.611a1.006 1.006 0 0 0-.58-1.927c-3.287.997-7.212 1.525-11.35 1.525-.552 0-1 .45-1 1.007 0 .556.449 1.006 1.002 1.006zm-18.38 7.548c1.002.527 2.073 1 3.186 1.407a1 1 0 0 0 1.283-.6c.188-.523-.079-1.1-.599-1.29a24.601 24.601 0 0 1-2.942-1.3.999.999 0 0 0-1.352.425 1.01 1.01 0 0 0 .425 1.358zm12.042 3.459c2.01.248 4.044.372 6.087.372 2.211 0 4.434-.146 6.653-.436.548-.07.935-.576.864-1.127a1 1 0 0 0-1.123-.868 48.63 48.63 0 0 1-12.237.061 1.007 1.007 0 0 0-.244 1.998zm17.211-1.9a1.002 1.002 0 0 0 1.23.707c2.214-.608 4.197-1.372 5.894-2.273a1.01 1.01 0 0 0 .418-1.36 1 1 0 0 0-1.353-.422c-1.568.833-3.414 1.543-5.487 2.112-.532.147-.847.7-.702 1.236zM54 32.867c0-2.332-1.252-4.57-3.63-6.502.07-.379.104-.758.104-1.134 0-2.963-2.046-5.724-5.779-7.817-.088-2.05-.704-8.647-4.903-12.494-2.37-2.17-5.448-3.084-9.16-2.713a1.002 1.002 0 0 0-.799.554c-.153.313-.136.681.044.976.634 1.037 1.745 3.538 1.133 4.65-.263.48-.93.729-1.982.739-2.583.026-5.105.351-7.37.918a9.54 9.54 0 0 0-1.022-1.23c-2.403-2.414-5.573-3.498-8.456-3.192a7.682 7.682 0 0 0-2.034-2.48c-2.01-1.593-4.777-2.133-8.222-1.6a1.006 1.006 0 0 0-.838 1.147c.083.55.601.928 1.142.843 2.861-.44 5.102-.046 6.658 1.175.538.422.936.908 1.247 1.393-1.04.385-2 .976-2.813 1.794l-.915.92c-3.42 3.438-3.008 9.442.915 13.385.24.242.49.463.749.674a6.42 6.42 0 0 0-.466 2.357c0 .377.036.756.104 1.134-2.377 1.933-3.63 4.17-3.63 6.502 0 1.697.657 3.328 1.94 4.853l3.781 9.362.048.103c3.188 5.892 5.877 7.393 11.699 9.636 2.032.784 4.892 1.176 7.749 1.176 2.857 0 5.712-.392 7.73-1.177 5.833-2.265 8.52-3.762 11.645-9.54l4.857-11.976-.002-.002c.313-.8.476-1.617.476-2.434zm-46.18-22.63l.916-.92a5.777 5.777 0 0 1 2.209-1.368c.108.411.144.695.146.714a1.004 1.004 0 0 0 1.08.914c.552-.046.96-.532.914-1.087-.004-.043-.036-.386-.16-.901.072-.002.142-.02.215-.02 2.093 0 4.329.908 6.079 2.668.44.441.808.933 1.12 1.455.001.002 0 .006.002.01a7.46 7.46 0 0 1 1.032 3.444c.002.047.006.095.007.143.01.368-.003.737-.046 1.102l-.017.118c-.1.749-.315 1.482-.638 2.173-.02.041-.038.083-.058.123-.162.33-.35.65-.563.957-.03.044-.063.084-.094.128a7.575 7.575 0 0 1-.744.886 7.47 7.47 0 0 1-.945.796l-.08.059a7.355 7.355 0 0 1-1.046.605l-.056.026a7.426 7.426 0 0 1-3.58.673c-.028-.002-.056-.002-.085-.003a7.45 7.45 0 0 1-1.159-.18l-.108-.027a7.187 7.187 0 0 1-1.131-.382l-.048-.024a7.3 7.3 0 0 1-1.109-.608l-.009-.003a7.439 7.439 0 0 1-1.128-.933c-3.142-3.158-3.553-7.886-.915-10.538zm1.605 17.337c.337-.25.483-.689.365-1.093a4.446 4.446 0 0 1-.184-1.25c0-.406.064-.82.193-1.241.073.037.147.066.222.1a9.248 9.248 0 0 0 1.656.588c.086.022.172.046.259.065a9.708 9.708 0 0 0 .806.14c.168.021.336.041.506.054.095.006.19.01.285.013.148.008.295.022.445.022.481 0 .953-.046 1.42-.117l.118-.017c.219-.036.434-.08.647-.131l.06-.015a9.212 9.212 0 0 0 1.977-.729l.038-.018c.164-.084.323-.175.482-.269.09-.052.179-.105.266-.16.128-.081.254-.165.38-.252.125-.089.249-.184.372-.278.09-.072.184-.14.272-.216.215-.18.425-.368.626-.57.307-.31.582-.64.84-.983a9.354 9.354 0 0 0 1.345-2.478l.065-.181c.267-.792.428-1.621.48-2.473.004-.09.01-.18.012-.271.003-.102.015-.204.015-.308 0-.776-.103-1.534-.282-2.269l-.02-.082a9.305 9.305 0 0 0-.423-1.302c1.976-.446 4.157-.692 6.381-.715 1.829-.02 3.078-.618 3.715-1.782.875-1.596.212-3.777-.425-5.216 2.442.032 4.49.79 6.098 2.26 4.253 3.888 4.27 11.539 4.27 11.616 0 .376.208.723.54.897 3.37 1.763 5.226 4.005 5.226 6.315 0 .412-.062.833-.184 1.25a1.01 1.01 0 0 0 .365 1.094c1.526 1.135 3.345 2.974 3.345 5.293 0 .367-.047.738-.142 1.11-.02-.01-.042-.013-.062-.022a4.163 4.163 0 0 0-.805-.282c-.034-.008-.07-.011-.103-.019a4.602 4.602 0 0 0-.851-.098c-.023 0-.045-.003-.068-.003a5.511 5.511 0 0 0-.919.08c-.06.009-.122.018-.184.03-.308.06-.623.14-.944.25-.059.02-.118.044-.177.065-.319.116-.642.25-.972.414l-.072.033c-.343.172-.691.378-1.043.6l-.214.136c-.345.226-.694.477-1.046.75-.068.053-.136.11-.204.164-.37.297-.743.61-1.12.958-2.664-1.82-6.374-.614-9.149 1.798a7.504 7.504 0 0 0-9.14.002c-.21-.18-.426-.353-.646-.519-.065-.05-.131-.096-.197-.143-.164-.12-.33-.235-.499-.346l-.204-.134a12.09 12.09 0 0 0-.693-.409l-.005-.002a10.678 10.678 0 0 0-.717-.35c-.069-.032-.137-.059-.206-.088a10.938 10.938 0 0 0-.754-.285 8.683 8.683 0 0 0-.73-.208h-.002a7.442 7.442 0 0 0-.735-.131c-.065-.01-.13-.015-.196-.02a6.965 6.965 0 0 0-.55-.035c-.043 0-.085-.007-.126-.007-.025 0-.05.005-.075.005-.48.005-.95.068-1.404.192-.062.017-.122.038-.184.057-.17.053-.337.116-.501.188-.063.027-.124.053-.185.083-.214.104-.425.22-.629.357a21.026 21.026 0 0 0-.708-.624l-.226-.183c-.16-.13-.32-.26-.478-.382-.087-.066-.174-.128-.26-.192-.146-.107-.291-.212-.436-.312a15.03 15.03 0 0 0-.685-.443c-.092-.055-.184-.11-.275-.162a11.04 11.04 0 0 0-1.073-.541c-.085-.038-.17-.076-.254-.11a8.028 8.028 0 0 0-.414-.152c-.075-.027-.15-.055-.225-.079a8.164 8.164 0 0 0-.468-.128c-.051-.011-.104-.028-.154-.04a6.237 6.237 0 0 0-.604-.102c-.04-.005-.08-.005-.12-.008a5.774 5.774 0 0 0-.464-.028c-.071 0-.137.005-.204.007a4.635 4.635 0 0 0-.363.022c-.073.008-.145.02-.217.03-.11.018-.22.037-.326.061a4.285 4.285 0 0 0-1.023.387c-.062.033-.124.066-.185.102-.032.02-.066.035-.098.054a4.591 4.591 0 0 1-.205-1.346c0-2.319 1.818-4.158 3.344-5.293zm37.459 18.794c-2.82 5.194-5.027 6.418-10.58 8.575-3.528 1.37-10.484 1.371-14.041 0-5.542-2.138-7.749-3.363-10.63-8.67L7.82 36.83l-.001-.003-.386-.953c2.472-1.402 6.521 2.394 7.357 3.22l.702.695.703-.695c2.216-2.193 5.919-.122 7.867 1.807l.706.699.703-.703a5.497 5.497 0 0 1 7.766 0l.706.706.706-.706c1.78-1.78 5.04-3.677 7.25-2.22.179.118.352.25.515.414l.705.704.706-.701.001-.001c.11-.11.274-.27.483-.462.019-.019.042-.039.062-.057.084-.077.173-.157.269-.242l.141-.123c.08-.07.16-.14.247-.212l.195-.16.241-.195c.077-.061.157-.123.238-.183l.24-.18a14.953 14.953 0 0 1 .803-.55 13.586 13.586 0 0 1 .554-.331 13.258 13.258 0 0 1 .566-.292c.091-.043.182-.081.274-.12.1-.042.2-.084.3-.122.095-.035.19-.063.285-.092.096-.03.191-.062.287-.085.104-.025.205-.04.307-.058.086-.015.172-.033.257-.042.12-.013.234-.01.352-.01.066 0 .133-.005.197 0 .355.026.694.122 1.008.301l-4.25 10.489z"/></svg>