<svg width="18" height="18" xmlns="http://www.w3.org/2000/svg" xmlns:xlink="http://www.w3.org/1999/xlink" xmlns:svgjs="http://svgjs.com/svgjs" viewBox="0 0.167 18 17.666" fill="#535353"><path paint-order="stroke fill markers" fill-rule="evenodd" d="M11.135 8.819v-.026l-.017.026h.017zm6.616-7.542H3.232c-.695 0-1.258.536-1.258 1.198V16.8c0 .661.563 1.198 1.258 1.198h14.52c.695 0 1.259-.537 1.259-1.198V2.475c0-.662-.564-1.198-1.26-1.198zM7.138 15.274H4.564v-7.55h2.574v7.55zM5.85 6.692h-.017c-.863 0-1.422-.578-1.422-1.304 0-.74.576-1.304 1.456-1.304s1.422.564 1.44 1.304c0 .726-.56 1.304-1.457 1.304zm10.566 8.582h-2.574v-4.04c0-1.014-.372-1.706-1.303-1.706-.71 0-1.134.466-1.32.917-.068.161-.085.387-.085.612v4.217H8.562s.033-6.842 0-7.55h2.573v1.069c.342-.514.954-1.248 2.32-1.248 1.692 0 2.962 1.08 2.962 3.4v4.329z"/></svg>